
<svg width="150" height="51" viewBox="0 0 150 51" fill="none" xmlns="http://www.w3.org/2000/svg">
<path d="M24.9231 0.607892C11.1629 0.607892 0 11.7431 0 25.4757V44.6239C0 47.9396 2.62493 50.6474 5.94064 50.6474C9.25634 50.6474 11.9365 47.9672 11.9365 44.6239V25.4757C11.9365 18.4022 17.7667 12.5721 24.8954 12.5721C32.0242 12.5721 37.799 18.4022 37.799 25.4757V31.5268H26.4151C23.0994 31.5268 20.3916 34.2347 20.3916 37.5227C20.3916 40.8108 23.0718 43.4634 26.4151 43.4634H37.799V50.6198H49.8185V25.4481C49.8185 11.7431 38.6003 0.580261 24.8954 0.580261L24.9231 0.607892Z" fill="#004F9F"/>
<path d="M134.48 19.5074L127.903 19.3969H123.869H122.515H122.46C120.332 19.3969 118.592 17.6561 118.592 15.5838C118.592 13.5115 120.332 11.7155 122.46 11.7155H140.503C143.736 11.7155 146.361 9.09056 146.361 5.85775C146.361 2.62493 143.736 0 140.503 0H123.344C114.889 0 107.318 6.3551 106.904 14.7825C106.462 23.7349 113.563 31.0571 122.405 31.1124L123.897 31.1953H127.793L134.369 31.2505H134.424C136.552 31.2505 138.293 32.9913 138.293 35.0636C138.293 37.1359 136.552 38.9319 134.424 38.9319H111.491C108.258 38.9319 105.633 41.5568 105.633 44.7897C105.633 48.0225 108.258 50.6474 111.491 50.6474H133.54C141.995 50.6474 149.566 44.2923 149.98 35.8649C150.423 26.9125 143.321 19.5903 134.48 19.535V19.5074Z" fill="#9D9D9C"/>
<path d="M54.5157 24.6468C56.892 24.2876 59.3511 24.9507 61.1748 26.7467C62.6116 28.1835 63.3576 30.0624 63.4405 31.9413C64.2142 31.6926 64.9878 31.5269 65.8168 31.5269C67.9167 31.5269 69.8785 32.3558 71.3429 33.8202C73.4705 35.9478 74.0784 39.0148 73.2218 41.7226C75.1007 41.8055 76.9796 42.5516 78.4164 43.9884C80.2401 45.812 80.8203 48.2712 80.4611 50.6474H80.5993C90.878 50.6474 99.7199 44.4305 103.561 35.561L82.8374 14.8378L75.377 22.2981C72.4205 25.2546 67.2536 25.2546 64.2971 22.2981C62.805 20.8061 62.0037 18.8443 62.0037 16.7443C62.0037 14.6444 62.8326 12.6826 64.2971 11.1905L74.9902 0.497375H54.5434V24.5915L54.5157 24.6468Z" fill="#004F9F"/>
<path d="M80.5993 0.552612H79.8809L66.7562 13.6773C65.0431 15.3904 65.0431 18.1535 66.7562 19.8666C68.4693 21.5797 71.2324 21.5797 72.9455 19.8666L82.865 9.94711L104.832 31.9137C105.357 29.8966 105.66 27.7967 105.66 25.6138C105.66 11.7708 94.4423 0.552612 80.5993 0.552612Z" fill="#9D9D9C"/>
<path d="M58.7432 29.2058C57.6104 28.073 55.9802 27.7414 54.5434 28.1559V39.5951L58.7432 35.3952C60.4564 33.682 60.4564 30.919 58.7432 29.2058Z" fill="#9D9D9C"/>
<path d="M68.8838 36.2793C67.1707 34.5662 64.4076 34.5662 62.6945 36.2793L54.4881 44.4857V50.675H60.6498L68.8561 42.4687C70.5693 40.7555 70.5693 37.9925 68.8561 36.2793H68.8838Z" fill="#9D9D9C"/>
<path d="M69.7956 46.4475L65.5957 50.6474H77.0349C77.4217 49.183 77.1178 47.5804 75.9849 46.4475C74.2718 44.7344 71.5087 44.7344 69.7956 46.4475Z" fill="#9D9D9C"/>
</svg>
